<svg xmlns="http://www.w3.org/2000/svg" version="1.1" width="176" height="176">
<path d="M0 0 C6.46938918 6.13404287 11.3654051 13.61625782 12.171875 22.64453125 C12.2138728 35.21587309 9.67580105 42.1233588 0.87109375 51.27734375 C-10.44763495 61.08919178 -22.8339053 65.06679774 -37.12890625 68.27734375 C-37.62390625 70.25734375 -37.62390625 70.25734375 -38.12890625 72.27734375 C-37.54088226 72.27290253 -36.95285828 72.2684613 -36.34701538 72.2638855 C-30.21492956 72.2195643 -24.08288941 72.18944081 -17.95068359 72.16748047 C-15.66355541 72.15743642 -13.37644002 72.14379867 -11.08935547 72.12646484 C-7.79781939 72.10214667 -4.50645343 72.09084451 -1.21484375 72.08203125 C-0.19587006 72.07170868 0.82310364 72.06138611 1.87295532 72.05075073 C6.875486 72.049964 11.27050339 72.0541715 15.87109375 74.27734375 C18.20237357 77.77426348 18.13297019 79.20190524 18.16162109 83.33764648 C18.1743808 84.5858165 18.1871405 85.83398651 18.20028687 87.11997986 C18.20334419 88.48363083 18.20557212 89.84728388 18.20703125 91.2109375 C18.21345841 92.60954424 18.22018671 94.00814963 18.22720337 95.40675354 C18.23917717 98.33801389 18.24288406 101.26915637 18.24169922 104.20043945 C18.24149592 107.95450969 18.26880734 111.70782377 18.30324364 115.46171474 C18.32549246 118.35023971 18.32953742 121.23858204 18.32847977 124.12718391 C18.33083843 125.51107453 18.33967702 126.89496998 18.3551445 128.27877617 C18.37476126 130.21496699 18.366455 132.1513797 18.35693359 134.08764648 C18.35978363 135.18890366 18.36263367 136.29016083 18.36557007 137.42478943 C17.87109375 140.27734375 17.87109375 140.27734375 16.46572876 142.60169983 C9.99092463 146.78319978 0.28142435 145.42991335 -7.19067383 145.43847656 C-8.77552582 145.44592392 -8.77552582 145.44592392 -10.39239502 145.45352173 C-13.85274933 145.46801052 -17.31305797 145.47491925 -20.7734375 145.48046875 C-21.96057531 145.48329613 -23.14771313 145.4861235 -24.37082481 145.48903656 C-30.64004104 145.50396709 -36.90923457 145.51323815 -43.1784668 145.51757812 C-49.65269075 145.52308637 -56.12670689 145.54718122 -62.60086536 145.57555008 C-67.5859387 145.59415075 -72.5709614 145.59938046 -77.55606651 145.600914 C-79.94390703 145.60394153 -82.33174663 145.6119734 -84.71955299 145.62509918 C-88.05123604 145.64212243 -91.38240264 145.64028955 -94.71411133 145.63378906 C-95.699655 145.64300385 -96.68519867 145.65221863 -97.7006073 145.66171265 C-102.62897335 145.63153686 -106.19145376 145.59876371 -110.12890625 142.27734375 C-112.42040652 138.84009334 -112.38570843 137.55492532 -112.40356445 133.50830078 C-112.41786247 131.73098068 -112.41786247 131.73098068 -112.43244934 129.91775513 C-112.43153793 128.6364975 -112.43062653 127.35523987 -112.4296875 126.03515625 C-112.43397263 124.71949677 -112.43825775 123.40383728 -112.44267273 122.04830933 C-112.45013384 119.26247125 -112.44984499 116.47675989 -112.44458008 113.69091797 C-112.43879222 110.12762625 -112.4556997 106.56485548 -112.47892475 103.00164986 C-112.49723728 99.59613044 -112.493476 96.19072462 -112.4921875 92.78515625 C-112.50139725 91.50794708 -112.51060699 90.23073792 -112.52009583 88.91482544 C-112.51386703 87.72364105 -112.50763824 86.53245667 -112.5012207 85.30517578 C-112.50185013 84.2594339 -112.50247955 83.21369202 -112.50312805 82.13626099 C-112.06414485 78.78259042 -111.18336395 76.95231619 -109.12890625 74.27734375 C-106.13900806 72.20400653 -103.67187306 72.03217725 -100.08496094 72.05029297 C-98.58385773 72.05051956 -98.58385773 72.05051956 -97.0524292 72.05075073 C-95.97938538 72.0610733 -94.90634155 72.07139587 -93.80078125 72.08203125 C-92.69663879 72.08486115 -91.59249634 72.08769104 -90.45489502 72.09060669 C-86.92945505 72.10179886 -83.4042694 72.126902 -79.87890625 72.15234375 C-77.48828492 72.16237478 -75.09765961 72.17150042 -72.70703125 72.1796875 C-66.84756952 72.20173505 -60.98825606 72.23520322 -55.12890625 72.27734375 C-55.87087654 70.27947488 -55.87087654 70.27947488 -57.12890625 68.27734375 C-59.95394029 67.30791102 -62.60812603 66.56529333 -65.50390625 65.90234375 C-78.52122449 62.5934471 -92.43058781 56.99217616 -100.12890625 45.27734375 C-100.12890625 44.61734375 -100.12890625 43.95734375 -100.12890625 43.27734375 C-100.78890625 43.27734375 -101.44890625 43.27734375 -102.12890625 43.27734375 C-106.24792676 33.7704973 -107.79320326 25.75866151 -104.62890625 15.71484375 C-99.28856391 2.76911732 -88.95631891 -4.82681213 -76.5 -10.32421875 C-51.1087959 -19.85637221 -21.57046315 -17.45426467 0 0 Z " fill="#A4A5A6" transform="translate(135.12890625,20.72265625)"/>
<path d="M0 0 C6.46938918 6.13404287 11.3654051 13.61625782 12.171875 22.64453125 C12.2138728 35.21587309 9.67580105 42.1233588 0.87109375 51.27734375 C-9.52948636 60.29327779 -23.10142294 67.27734375 -37.12890625 67.27734375 C-35.60767213 62.99022941 -33.39954898 59.36999504 -30.95703125 55.55859375 C-29.81891336 52.42340106 -30.76295954 51.2714161 -32.12890625 48.27734375 C-33.02004883 46.53230137 -33.93837834 44.80095977 -34.87890625 43.08203125 C-35.6678125 41.63763672 -35.6678125 41.63763672 -36.47265625 40.1640625 C-37.01921875 39.17019531 -37.56578125 38.17632812 -38.12890625 37.15234375 C-38.67546875 36.15074219 -39.22203125 35.14914063 -39.78515625 34.1171875 C-42.79984936 28.60322871 -42.79984936 28.60322871 -46.12890625 23.27734375 C-46.78890625 23.27734375 -47.44890625 23.27734375 -48.12890625 23.27734375 C-48.69605347 24.28317505 -48.69605347 24.28317505 -49.2746582 25.30932617 C-50.99620809 28.36156049 -52.71879683 31.41320729 -54.44140625 34.46484375 C-55.33375977 36.04749023 -55.33375977 36.04749023 -56.24414062 37.66210938 C-56.82099609 38.68369141 -57.39785156 39.70527344 -57.9921875 40.7578125 C-58.52110596 41.69520264 -59.05002441 42.63259277 -59.5949707 43.59838867 C-60.63249878 45.4103886 -61.72180437 47.19354942 -62.85620117 48.9465332 C-64.43454579 51.25943264 -64.43454579 51.25943264 -63.62890625 54.08984375 C-62.04878317 57.44760529 -60.21634429 60.4648639 -58.15234375 63.54296875 C-57.12890625 65.27734375 -57.12890625 65.27734375 -57.12890625 67.27734375 C-70.59134305 65.8233003 -83.05891386 61.58280309 -93.12890625 52.27734375 C-94.09828125 51.39046875 -95.06765625 50.50359375 -96.06640625 49.58984375 C-97.90630819 47.52692339 -99.09228594 45.82177542 -100.12890625 43.27734375 C-100.78890625 43.27734375 -101.44890625 43.27734375 -102.12890625 43.27734375 C-106.24792676 33.7704973 -107.79320326 25.75866151 -104.62890625 15.71484375 C-99.28856391 2.76911732 -88.95631891 -4.82681213 -76.5 -10.32421875 C-51.1087959 -19.85637221 -21.57046315 -17.45426467 0 0 Z " fill="#303032" transform="translate(135.12890625,20.72265625)"/>
<path d="M0 0 C0.99902344 -0.01224609 1.99804688 -0.02449219 3.02734375 -0.03710938 C15.38795317 -0.06134586 26.18150005 2.9548454 36.1875 10.5625 C41.48787475 15.99215218 44.41049571 21.24925025 45.0625 28.8125 C44.93469485 35.05171522 42.98904034 40.79035948 38.703125 45.37890625 C36.77212097 47.07367042 34.82153903 48.66904178 32.75 50.1875 C34.235 51.1775 34.235 51.1775 35.75 52.1875 C18.22328244 59.1875 18.22328244 59.1875 10.75 59.1875 C12.27123412 54.90038566 14.47935727 51.28015129 16.921875 47.46875 C18.05944735 44.33506012 17.11186918 43.18093972 15.75 40.1875 C13.87822267 36.45369794 11.86888219 32.79479515 9.875 29.125 C9.34519531 28.13177734 8.81539062 27.13855469 8.26953125 26.11523438 C7.75003906 25.15810547 7.23054688 24.20097656 6.6953125 23.21484375 C6.22625488 22.34593506 5.75719727 21.47702637 5.27392578 20.58178711 C3.60445903 17.95883606 2.22029565 16.09263177 -0.25 14.1875 C-3.40092415 13.56286442 -3.40092415 13.56286442 -6.9140625 13.61328125 C-8.20054688 13.58556641 -9.48703125 13.55785156 -10.8125 13.52929688 C-12.16666007 13.51865611 -13.52082737 13.50890051 -14.875 13.5 C-17.53403901 13.46175182 -20.1926872 13.41266799 -22.8515625 13.36328125 C-24.03057129 13.35208252 -25.20958008 13.34088379 -26.42431641 13.3293457 C-29.25 13.1875 -29.25 13.1875 -31.25 12.1875 C-31.25 10.1875 -31.25 10.1875 -29.375 7.8125 C-21.57559328 0.28050151 -10.1432355 0.00644424 0 0 Z " fill="#535352" transform="translate(87.25,28.8125)"/>
<path d="M0 0 C3.82341111 1.27447037 4.12027416 2.48027068 6.03125 5.953125 C6.59457031 6.96503906 7.15789062 7.97695313 7.73828125 9.01953125 C8.31964844 10.08558594 8.90101562 11.15164062 9.5 12.25 C10.65586352 14.33875558 11.81210091 16.42730433 12.96875 18.515625 C13.47857422 19.44665039 13.98839844 20.37767578 14.51367188 21.33691406 C15.52550938 23.149845 16.59650209 24.93071971 17.71679688 26.67871094 C19 29 19 29 18.5625 31.625 C15.77982813 37.63557124 12.67561891 43.48657163 9 49 C8.34 49 7.68 49 7 49 C7 49.66 7 50.32 7 51 C3.04 51 -0.92 51 -5 51 C-5 50.34 -5 49.68 -5 49 C-5.99 48.67 -6.98 48.34 -8 48 C-9.24609375 45.9609375 -9.24609375 45.9609375 -10.4375 43.375 C-11.94341785 40.15655972 -13.49502239 37.16027823 -15.4375 34.1875 C-17 31 -17 31 -16.25146484 28.59155273 C-15.06770064 26.14019553 -13.84967678 23.73355077 -12.5390625 21.34765625 C-12.06726563 20.48849609 -11.59546875 19.62933594 -11.109375 18.74414062 C-10.37460938 17.41672852 -10.37460938 17.41672852 -9.625 16.0625 C-8.90183594 14.74088867 -8.90183594 14.74088867 -8.1640625 13.39257812 C-5.6228061 8.7830981 -3.00496664 4.32230983 0 0 Z " fill="#EEC932" transform="translate(87,43)"/>
<path d="M0 0 C5.12545442 4.5859329 6.69574097 7.95740974 7.375 14.75 C7.16254645 20.92295603 5.1919615 26.65326259 0.953125 31.19140625 C-0.97787903 32.88617042 -2.92846097 34.48154178 -5 36 C-4.01 36.66 -3.02 37.32 -2 38 C-19.52671756 45 -19.52671756 45 -27 45 C-25.63654202 41.42524646 -24.05698689 38.08572026 -22.2421875 34.71875 C-21.70263428 33.71739014 -21.16308105 32.71603027 -20.60717773 31.68432617 C-20.03555908 30.63349854 -19.46394043 29.5826709 -18.875 28.5 C-17.99920288 26.88992065 -17.99920288 26.88992065 -17.10571289 25.24731445 C-5.14847295 3.39100734 -5.14847295 3.39100734 0 0 Z " fill="#535352" transform="translate(125,43)"/>
<path d="M0 0 C11.22 0 22.44 0 34 0 C32.43155066 3.92112336 30.80288902 7.30396946 28.7421875 10.95703125 C27.80439453 12.62475586 27.80439453 12.62475586 26.84765625 14.32617188 C26.1901709 15.48831901 25.53261797 16.65042791 24.875 17.8125 C24.20935359 18.99398189 23.54398616 20.175621 22.87890625 21.35742188 C21.25534066 24.23983905 19.62894985 27.12062331 18 30 C17.34 30 16.68 30 16 30 C15.62190186 29.3294458 15.24380371 28.6588916 14.85424805 27.96801758 C13.13269816 24.91578326 11.41010942 21.86413646 9.6875 18.8125 C9.09259766 17.75740234 8.49769531 16.70230469 7.88476562 15.61523438 C7.30791016 14.59365234 6.73105469 13.57207031 6.13671875 12.51953125 C5.34334106 11.11344604 5.34334106 11.11344604 4.53393555 9.67895508 C3.49188391 7.85905493 2.41357322 6.05953927 1.30395508 4.2800293 C0 2 0 2 0 0 Z " fill="#040201" transform="translate(89,42)"/>
<path d="M0 0 C11.22 0 22.44 0 34 0 C32.62336715 4.12989856 31.61753008 6.97525946 29.50390625 10.56640625 C29.02759766 11.38173828 28.55128906 12.19707031 28.06054688 13.03710938 C27.56619141 13.87048828 27.07183594 14.70386719 26.5625 15.5625 C26.07201172 16.39974609 25.58152344 17.23699219 25.07617188 18.09960938 C24.1351676 19.70350735 23.18960697 21.30474382 22.23876953 22.90283203 C21.22619452 24.61706525 20.24684933 26.35088929 19.27734375 28.08984375 C18.85582031 28.72019531 18.43429688 29.35054687 18 30 C17.34 30 16.68 30 16 30 C15.62190186 29.3294458 15.24380371 28.6588916 14.85424805 27.96801758 C13.13269816 24.91578326 11.41010942 21.86413646 9.6875 18.8125 C9.09259766 17.75740234 8.49769531 16.70230469 7.88476562 15.61523438 C7.30791016 14.59365234 6.73105469 13.57207031 6.13671875 12.51953125 C5.34334106 11.11344604 5.34334106 11.11344604 4.53393555 9.67895508 C3.49188391 7.85905493 2.41357322 6.05953927 1.30395508 4.2800293 C0 2 0 2 0 0 Z " fill="#030201" transform="translate(53,42)"/>
<path d="M0 0 C0.92065247 0.00015106 1.84130493 0.00030212 2.78985596 0.00045776 C3.77540466 0.01078033 4.76095337 0.02110291 5.77636719 0.03173828 C7.2994046 0.03598312 7.2994046 0.03598312 8.85321045 0.04031372 C12.09334135 0.05150077 15.33319495 0.07660287 18.57324219 0.10205078 C20.77115486 0.11208248 22.96907187 0.121208 25.16699219 0.12939453 C30.55250333 0.15143527 35.93785294 0.18489827 41.32324219 0.22705078 C41.32324219 0.55705078 41.32324219 0.88705078 41.32324219 1.22705078 C40.75583313 1.24766571 40.18842407 1.26828064 39.6038208 1.28952026 C33.69863813 1.5058698 27.79405235 1.7350461 21.88964844 1.97167969 C19.68599943 2.05830723 17.48221926 2.14166261 15.27832031 2.22167969 C12.11060049 2.33725865 8.9435387 2.46459478 5.77636719 2.59423828 C4.79081848 2.62766327 3.80526978 2.66108826 2.78985596 2.69552612 C1.40887726 2.75536179 1.40887726 2.75536179 0 2.81640625 C-1.21245392 2.86303909 -1.21245392 2.86303909 -2.44940186 2.91061401 C-5.07933519 3.16420521 -5.07933519 3.16420521 -8.67675781 5.22705078 C-9.00675781 25.68705078 -9.33675781 46.14705078 -9.67675781 67.22705078 C-8.35675781 67.88705078 -7.03675781 68.54705078 -5.67675781 69.22705078 C-5.34675781 69.55705078 -5.01675781 69.88705078 -4.67675781 70.22705078 C-3.19659387 70.32273654 -1.71187508 70.34893346 -0.22862244 70.3473053 C1.2122599 70.34936729 1.2122599 70.34936729 2.68225098 70.35147095 C4.27583435 70.34607803 4.27583435 70.34607803 5.90161133 70.34057617 C7.0136644 70.3407222 8.12571747 70.34086823 9.27146912 70.34101868 C12.9671317 70.34031899 16.6627446 70.33252398 20.35839844 70.32470703 C22.91287712 70.32284305 25.46735616 70.32141905 28.02183533 70.32041931 C34.07085928 70.31698422 40.11986174 70.30909343 46.16887707 70.29906982 C53.05389372 70.28790761 59.93891123 70.28239796 66.82393467 70.27737439 C80.99038049 70.26691078 95.15681036 70.24931201 109.32324219 70.22705078 C109.32324219 69.89705078 109.32324219 69.56705078 109.32324219 69.22705078 C113.28324219 68.23705078 113.28324219 68.23705078 117.32324219 67.22705078 C117.32324219 46.76705078 117.32324219 26.30705078 117.32324219 5.22705078 C117.65324219 5.22705078 117.98324219 5.22705078 118.32324219 5.22705078 C118.41594994 13.372089 118.48701042 21.51690655 118.53049088 29.66234207 C118.55136014 33.44468073 118.57966467 37.22665825 118.625 41.00878906 C118.66848292 44.6592539 118.69238427 48.30937154 118.70275116 51.96007538 C118.71013828 53.35236833 118.72456394 54.74464241 118.74616241 56.13678741 C118.7752226 58.08758489 118.77687631 60.03873224 118.77734375 61.98974609 C118.7862262 63.10005188 118.79510864 64.21035767 118.80426025 65.35430908 C118.32324219 68.22705078 118.32324219 68.22705078 116.91986084 70.55438232 C110.43839328 74.72956081 100.73649387 73.37961703 93.26147461 73.38818359 C91.67662262 73.39563095 91.67662262 73.39563095 90.05975342 73.40322876 C86.59939911 73.41771755 83.13909046 73.42462629 79.67871094 73.43017578 C78.49157312 73.43300316 77.30443531 73.43583054 76.08132362 73.43874359 C69.8121074 73.45367412 63.54291387 73.46294518 57.27368164 73.46728516 C50.79945769 73.4727934 44.32544154 73.49688825 37.85128307 73.52525711 C32.86620973 73.54385778 27.88118704 73.54908749 22.89608192 73.55062103 C20.50824141 73.55364856 18.1204018 73.56168043 15.73259544 73.57480621 C12.40091239 73.59182946 9.0697458 73.58999658 5.73803711 73.58349609 C4.75249344 73.59271088 3.76694977 73.60192566 2.75154114 73.61141968 C-2.17682491 73.58124389 -5.73930533 73.54847074 -9.67675781 70.22705078 C-11.96825809 66.78980037 -11.93355999 65.50463235 -11.95141602 61.45800781 C-11.96094803 60.27312775 -11.97048004 59.08824768 -11.9803009 57.86746216 C-11.9793895 56.58620453 -11.97847809 55.3049469 -11.97753906 53.98486328 C-11.98182419 52.6692038 -11.98610931 51.35354431 -11.99052429 49.99801636 C-11.9979854 47.21217828 -11.99769655 44.42646692 -11.99243164 41.640625 C-11.98664378 38.07733329 -12.00355126 34.51456251 -12.02677631 30.95135689 C-12.04508885 27.54583747 -12.04132756 24.14043165 -12.04003906 20.73486328 C-12.04924881 19.45765411 -12.05845856 18.18044495 -12.06794739 16.86453247 C-12.0617186 15.67334808 -12.05548981 14.4821637 -12.04907227 13.25488281 C-12.04970169 12.20914093 -12.05033112 11.16339905 -12.05097961 10.08596802 C-11.61199641 6.73229745 -10.73121551 4.90202322 -8.67675781 2.22705078 C-5.78398453 0.24535529 -3.46149669 -0.01901921 0 0 Z " fill="#7CA4C5" transform="translate(34.6767578125,92.77294921875)"/>
<path d="M0 0 C0 0.66 0 1.32 0 2 C1.65 2.66 3.3 3.32 5 4 C5 4.33 5 4.66 5 5 C3.39125 5.0928125 3.39125 5.0928125 1.75 5.1875 C-2.03191344 5.69960714 -2.03191344 5.69960714 -4.4375 8.0625 C-6.58385776 12.09765259 -6.43977705 14.4556371 -6 19 C-5.34 19.99 -4.68 20.98 -4 22 C-4 23.32 -4 24.64 -4 26 C-5.65614657 26.38218767 -7.32457024 26.71395102 -9 27 C-9.33 26.67 -9.66 26.34 -10 26 C-10.99 26.99 -11.98 27.98 -13 29 C-13 28.34 -13 27.68 -13 27 C-13.66 26.67 -14.32 26.34 -15 26 C-14.34 26 -13.68 26 -13 26 C-13.32613281 25.38253906 -13.65226562 24.76507813 -13.98828125 24.12890625 C-16.87336815 18.53745465 -19.20801855 13.03154731 -21 7 C-20.67 6.67 -20.34 6.34 -20 6 C-19.95936168 4.33382885 -19.957279 2.66611905 -20 1 C-19.34 1 -18.68 1 -18 1 C-18 0.34 -18 -0.32 -18 -1 C-12.11614923 -2.56902687 -5.16397848 -3.44265232 0 0 Z " fill="#A4A4A4" transform="translate(127,96)"/>
<path d="M0 0 C2.20693597 4.76233552 2.48959881 8.85921248 2 14 C0.20636089 16.8100346 -1.01880935 18.50940468 -4 20 C-8.18144011 20.39447548 -10.30946048 20.45035186 -13.875 18.125 C-16.71941408 15.28058592 -17.20354172 13.6112568 -17.375 9.6875 C-17.31221861 6.14320501 -17.06347259 5.09828013 -15.0625 2 C-10.30387395 -1.10767416 -5.41150899 -1.80383633 0 0 Z " fill="#565656" transform="translate(74,133)"/>
<path d="M0 0 C1.62600941 0.0870005 3.25089678 0.1951781 4.875 0.3125 C5.77992187 0.37050781 6.68484375 0.42851563 7.6171875 0.48828125 C10 1 10 1 12 4 C11.34 4.66 10.68 5.32 10 6 C9.60235737 7.98821313 9.26224651 9.98944339 9 12 C8.01 12.33 7.02 12.66 6 13 C6.350625 13.70125 6.70125 14.4025 7.0625 15.125 C8.18528652 18.56821198 7.99936105 20.5406733 7 24 C4.00261059 25.99825961 3.36652492 26.27550398 0 26.25 C-1.0209375 26.25773437 -1.0209375 26.25773437 -2.0625 26.265625 C-4 26 -4 26 -7 24 C-6.67 22.68 -6.34 21.36 -6 20 C-4.68 19.67 -3.36 19.34 -2 19 C-2.680625 18.113125 -3.36125 17.22625 -4.0625 16.3125 C-6 13 -6 13 -5.9375 10.3125 C-4.93454332 7.83854018 -3.89888058 6.82292536 -2 5 C-0.80972016 2.40084462 -0.80972016 2.40084462 0 0 Z " fill="#A3A3A3" transform="translate(44,95)"/>
<path d="M0 0 C2.0859375 0.40625 2.0859375 0.40625 5.0859375 2.40625 C4.7734375 4.34375 4.7734375 4.34375 4.0859375 6.40625 C0.31969079 7.66166557 -1.28595184 6.77686958 -4.9140625 5.40625 C-4.9140625 7.05625 -4.9140625 8.70625 -4.9140625 10.40625 C-4.5840625 9.74625 -4.2540625 9.08625 -3.9140625 8.40625 C-0.2840625 8.40625 3.3459375 8.40625 7.0859375 8.40625 C6.7559375 12.03625 6.4259375 15.66625 6.0859375 19.40625 C-4.89620536 21.01339286 -4.89620536 21.01339286 -8.5390625 18.59375 C-11.68893142 15.69255494 -11.85528411 14.99403395 -12.2890625 10.65625 C-12.2262435 7.52672143 -11.76839011 5.49239294 -9.9765625 2.90625 C-6.32771863 -0.07239806 -4.5469219 -0.18622206 0 0 Z " fill="#484848" transform="translate(131.9140625,100.59375)"/>
<path d="M0 0 C10.46428571 0 10.46428571 0 14 3 C16.32880181 6.21596441 16.3242679 9.10878524 16 13 C15.09845711 16.1554001 14.14078428 16.90614381 11.375 18.75 C8 20 8 20 0 20 C0 13.4 0 6.8 0 0 Z " fill="#3C3C3C" transform="translate(84,133)"/>
<path d="M0 0 C10.48868347 -0.37018883 10.48868347 -0.37018883 12.83984375 1.33203125 C14.6185113 3.88924016 14.24360286 5.95496429 14 9 C13.773125 9.86625 13.54625 10.7325 13.3125 11.625 C12.72383154 14.09887865 12.72383154 14.09887865 14.4375 16.1875 C14.953125 16.785625 15.46875 17.38375 16 18 C16 18.66 16 19.32 16 20 C13.1875 20.3125 13.1875 20.3125 10 20 C8.125 17.5 8.125 17.5 7 15 C7 16.65 7 18.3 7 20 C4.69 20 2.38 20 0 20 C0 13.4 0 6.8 0 0 Z " fill="#3F3F3F" transform="translate(127,133)"/>
<path d="M0 0 C1.32 0 2.64 0 4 0 C4 0.99 4 1.98 4 3 C6.97 3 9.94 3 13 3 C13 3.33 13 3.66 13 4 C10.03 4 7.06 4 4 4 C4.33 10.93 4.66 17.86 5 25 C4.34 25 3.68 25 3 25 C2.67 25.66 2.34 26.32 2 27 C-0.5 25.25 -0.5 25.25 -3 23 C-3 21.68 -3 20.36 -3 19 C-5.31 19 -7.62 19 -10 19 C-10 18.01 -10 17.02 -10 16 C-8.02 16 -6.04 16 -4 16 C-4 14.35 -4 12.7 -4 11 C-5.98 11 -7.96 11 -10 11 C-10 10.34 -10 9.68 -10 9 C-8.02 9 -6.04 9 -4 9 C-4 7.35 -4 5.7 -4 4 C-3.34 4 -2.68 4 -2 4 C-1.34 2.68 -0.68 1.36 0 0 Z " fill="#A3A3A3" transform="translate(123,129)"/>
<path d="M0 0 C3.96 0 7.92 0 12 0 C12 1.65 12 3.3 12 5 C10.02 5 8.04 5 6 5 C6 5.66 6 6.32 6 7 C7.98 7 9.96 7 12 7 C12 8.65 12 10.3 12 12 C10.02 12 8.04 12 6 12 C6 12.99 6 13.98 6 15 C7.98 15 9.96 15 12 15 C12 16.65 12 18.3 12 20 C10.18757948 20.02687279 8.37504767 20.04633715 6.5625 20.0625 C5.55316406 20.07410156 4.54382813 20.08570313 3.50390625 20.09765625 C1 20 1 20 0 19 C-0.08651611 17.58429877 -0.10704904 16.164405 -0.09765625 14.74609375 C-0.09443359 13.89208984 -0.09121094 13.03808594 -0.08789062 12.15820312 C-0.07951172 11.26037109 -0.07113281 10.36253906 -0.0625 9.4375 C-0.05798828 8.53580078 -0.05347656 7.63410156 -0.04882812 6.70507812 C-0.03700244 4.47002411 -0.01906638 2.23500398 0 0 Z " fill="#898989" transform="translate(107,133)"/>
<path d="M0 0 C0.91007812 0.00902344 1.82015625 0.01804688 2.7578125 0.02734375 C3.45648438 0.03894531 4.15515625 0.05054688 4.875 0.0625 C4.875 1.7125 4.875 3.3625 4.875 5.0625 C2.16620665 6.41689668 -0.13433268 6.12751451 -3.125 6.0625 C-3.785 8.3725 -4.445 10.6825 -5.125 13.0625 C-2.155 13.3925 0.815 13.7225 3.875 14.0625 C4.25718767 15.71864657 4.58895102 17.38707024 4.875 19.0625 C3.875 20.0625 3.875 20.0625 0.125 20.3125 C-3.73845353 20.25710999 -6.07382712 19.5752306 -9.125 17.0625 C-11.69070589 13.64155881 -11.56208054 10.21476516 -11.125 6.0625 C-7.83836921 1.02299945 -5.86190884 -0.07515268 0 0 Z " fill="#656565" transform="translate(44.125,132.9375)"/>
<path d="M0 0 C1.65 0.33 3.3 0.66 5 1 C5.33 3.31 5.66 5.62 6 8 C4 7 2 6 0 5 C-0.66 7.97 -1.32 10.94 -2 14 C-2.99 14 -3.98 14 -5 14 C-5 15.32 -5 16.64 -5 18 C-3.68 18 -2.36 18 -1 18 C-0.87882812 17.36191406 -0.75765625 16.72382812 -0.6328125 16.06640625 C-0.46523437 15.24011719 -0.29765625 14.41382812 -0.125 13.5625 C0.03742188 12.73878906 0.19984375 11.91507813 0.3671875 11.06640625 C0.57601562 10.38449219 0.78484375 9.70257813 1 9 C1.66 8.67 2.32 8.34 3 8 C4.31626692 11.61973402 5 14.09567131 5 18 C6.65 18 8.3 18 10 18 C10.12117188 17.34773438 10.24234375 16.69546875 10.3671875 16.0234375 C11.28943989 11.21353658 12.30167277 6.60974535 14 2 C15.5411298 5.95036437 14.39859394 8.76570901 13.125 12.6875 C12.57199219 14.42580078 12.57199219 14.42580078 12.0078125 16.19921875 C11 19 11 19 10 20 C8.33382885 20.04063832 6.66611905 20.042721 5 20 C4.01 18.02 3.02 16.04 2 14 C1.34 15.98 0.68 17.96 0 20 C-1.98 20 -3.96 20 -6 20 C-6.67610423 18.10751181 -7.34050439 16.2108398 -8 14.3125 C-8.37125 13.25675781 -8.7425 12.20101562 -9.125 11.11328125 C-9.9391857 8.21637944 -10.17709796 5.98299377 -10 3 C-8.0549 5.91765 -7.54723683 7.62537285 -7 11 C-6.01 11 -5.02 11 -4 11 C-3.79503906 10.37351562 -3.59007813 9.74703125 -3.37890625 9.1015625 C-3.10949219 8.28429687 -2.84007813 7.46703125 -2.5625 6.625 C-2.29566406 5.81289062 -2.02882813 5.00078125 -1.75390625 4.1640625 C-1 2 -1 2 0 0 Z " fill="#414141" transform="translate(70,101)"/>
<path d="M0 0 C1.65 0 3.3 0 5 0 C3.68 0.33 2.36 0.66 1 1 C0.53590278 5.00022661 0.53590278 5.00022661 3 7.0625 C3.99 8.0215625 3.99 8.0215625 5 9 C5 9.99 5 10.98 5 12 C3.35 12 1.7 12 0 12 C0 12.66 0 13.32 0 14 C1.134375 14.12375 2.26875 14.2475 3.4375 14.375 C4.613125 14.58125 5.78875 14.7875 7 15 C7.33 15.66 7.66 16.32 8 17 C8.99 17.33 9.98 17.66 11 18 C11.33 17.34 11.66 16.68 12 16 C12.33 17.32 12.66 18.64 13 20 C11.02 20 9.04 20 7 20 C6.67 18.68 6.34 17.36 6 16 C3.69 16 1.38 16 -1 16 C-1.33 17.32 -1.66 18.64 -2 20 C-3.65 20 -5.3 20 -7 20 C-6.29937517 15.43263559 -4.68729793 11.4300495 -2.9375 7.1875 C-2.51500977 6.14819336 -2.51500977 6.14819336 -2.08398438 5.08789062 C-1.39325027 3.39032376 -0.69716272 1.69493688 0 0 Z " fill="#A2A2A2" transform="translate(100,101)"/>
<path d="M0 0 C0.66 0.33 1.32 0.66 2 1 C1.67 1.66 1.34 2.32 1 3 C0.34 3 -0.32 3 -1 3 C-1 3.66 -1 4.32 -1 5 C0.32 5 1.64 5 3 5 C3.84334329 7.22582389 4.67478551 9.45496026 5.5 11.6875 C5.73847656 12.31333984 5.97695312 12.93917969 6.22265625 13.58398438 C7.5412725 17.18192299 8.29329235 20.16520253 8 24 C6.68 23.67 5.36 23.34 4 23 C4 22.34 4 21.68 4 21 C1.36 21 -1.28 21 -4 21 C-3.505 19.515 -3.505 19.515 -3 18 C-1.35 18 0.3 18 2 18 C0.75023244 14.34683329 0.32901247 13.21934164 -3 11 C-2.67 8.36 -2.34 5.72 -2 3 C-2.66 2.67 -3.32 2.34 -4 2 C-2.125 0.9375 -2.125 0.9375 0 0 Z " fill="#8A8A8A" transform="translate(103,95)"/>
<path d="M0 0 C0.66 0 1.32 0 2 0 C1.67 1.32 1.34 2.64 1 4 C1.66 4 2.32 4 3 4 C5.12725345 8.37963945 5.12725345 8.37963945 4.5 11.4375 C3.84738874 14.78213269 4.76628764 16.87943345 6 20 C6.66 20 7.32 20 8 20 C8 20.66 8 21.32 8 22 C9.65 21.67 11.3 21.34 13 21 C13 22.32 13 23.64 13 25 C15.64 25.33 18.28 25.66 21 26 C21 26.33 21 26.66 21 27 C17.04 27 13.08 27 9 27 C9 26.34 9 25.68 9 25 C8.01 24.67 7.02 24.34 6 24 C4.75390625 21.9609375 4.75390625 21.9609375 3.5625 19.375 C2.05658215 16.15655972 0.50497761 13.16027823 -1.4375 10.1875 C-3 7 -3 7 -2.3125 4.1875 C-1.879375 3.465625 -1.44625 2.74375 -1 2 C-0.67 1.34 -0.34 0.68 0 0 Z " fill="#EFC837" transform="translate(73,67)"/>
<path d="M0 0 C1.65 0 3.3 0 5 0 C4.67 0.99 4.34 1.98 4 3 C3.77674186 5.05893621 3.59294241 7.12233653 3.4375 9.1875 C3.35371094 10.27417969 3.26992187 11.36085937 3.18359375 12.48046875 C3.12300781 13.31191406 3.06242187 14.14335937 3 15 C6.24983135 13.91215032 6.24983135 13.91215032 9 12 C9.36760731 9.67182036 9.70241581 7.3381615 10 5 C10.99 5 11.98 5 13 5 C13.92117061 8.60093965 14.28640374 10.38627771 12.6875 13.8125 C11 16 11 16 9 17 C5.99525503 17.13559318 3.00931153 17.04299016 0 17 C0 11.39 0 5.78 0 0 Z " fill="#A4A4A4" transform="translate(85,134)"/>
<path d="M0 0 C3.65392651 1.2179755 3.95831699 2.14396506 5.75 5.4375 C6.19859375 6.24058594 6.6471875 7.04367188 7.109375 7.87109375 C7.55023438 8.92490234 7.55023438 8.92490234 8 10 C7.67 10.66 7.34 11.32 7 12 C6.43539062 11.63777344 5.87078125 11.27554688 5.2890625 10.90234375 C3.03706579 9.76857449 3.03706579 9.76857449 0.7109375 10.50390625 C-4.26441789 12.63735454 -4.26441789 12.63735454 -7.5625 16.75 C-7.7790625 17.86375 -7.7790625 17.86375 -8 19 C-8.66 19 -9.32 19 -10 19 C-10 19.66 -10 20.32 -10 21 C-10.66 20.67 -11.32 20.34 -12 20 C-8.04 13.4 -4.08 6.8 0 0 Z " fill="#E3C33F" transform="translate(87,43)"/>
<path d="M0 0 C3.96 0 7.92 0 12 0 C12 1.65 12 3.3 12 5 C10.02 5 8.04 5 6 5 C5.67 5.99 5.34 6.98 5 8 C5 6.68 5 5.36 5 4 C6.98 4 8.96 4 11 4 C11 3.01 11 2.02 11 1 C8.03 1 5.06 1 2 1 C2 6.61 2 12.22 2 18 C4.97 18 7.94 18 11 18 C11 17.34 11 16.68 11 16 C9.02 16 7.04 16 5 16 C5 14.35 5 12.7 5 11 C6.98 11 8.96 11 11 11 C11.33 10.01 11.66 9.02 12 8 C12 9.32 12 10.64 12 12 C10.02 12 8.04 12 6 12 C6 12.99 6 13.98 6 15 C7.98 15 9.96 15 12 15 C12 16.65 12 18.3 12 20 C10.18757948 20.02687279 8.37504767 20.04633715 6.5625 20.0625 C5.55316406 20.07410156 4.54382813 20.08570313 3.50390625 20.09765625 C1 20 1 20 0 19 C-0.08651611 17.58429877 -0.10704904 16.164405 -0.09765625 14.74609375 C-0.09443359 13.89208984 -0.09121094 13.03808594 -0.08789062 12.15820312 C-0.07951172 11.26037109 -0.07113281 10.36253906 -0.0625 9.4375 C-0.05798828 8.53580078 -0.05347656 7.63410156 -0.04882812 6.70507812 C-0.03700244 4.47002411 -0.01906638 2.23500398 0 0 Z " fill="#363636" transform="translate(107,133)"/>
<path d="M0 0 C0.66 0.33 1.32 0.66 2 1 C2 1.99 2 2.98 2 4 C0.68 3.67 -0.64 3.34 -2 3 C-1.34 4.32 -0.68 5.64 0 7 C-0.99 7.33 -1.98 7.66 -3 8 C-3 8.66 -3 9.32 -3 10 C-3.721875 10.226875 -4.44375 10.45375 -5.1875 10.6875 C-8.5515082 12.25737049 -10.49296687 14.28969392 -13 17 C-14.95216435 18.95216435 -16.53199953 19.84826645 -19 21 C-15.43266705 11.22413566 -8.64219411 5.40789209 0 0 Z " fill="#2A3640" transform="translate(51,14)"/>
<path d="M0 0 C1.32 0.66 2.64 1.32 4 2 C4 1.34 4 0.68 4 0 C5.98 0 7.96 0 10 0 C10 0.33 10 0.66 10 1 C8.35 1 6.7 1 5 1 C4.01 5.29 3.02 9.58 2 14 C0 13 0 13 -1 10 C-1.99 10.495 -1.99 10.495 -3 11 C-3.33 10.34 -3.66 9.68 -4 9 C-4.99 11.97 -5.98 14.94 -7 18 C-8.32 18 -9.64 18 -11 18 C-11 16.68 -11 15.36 -11 14 C-10.01 14 -9.02 14 -8 14 C-7.34 11.03 -6.68 8.06 -6 5 C-4.35 5.33 -2.7 5.66 -1 6 C-0.67 4.02 -0.34 2.04 0 0 Z " fill="#636363" transform="translate(76,101)"/>
<path d="M0 0 C1.10868317 3.32604951 1.54177532 6.53058454 2 10 C4.97 10.495 4.97 10.495 8 11 C8.66 9.68 9.32 8.36 10 7 C8.68 7 7.36 7 6 7 C6 6.34 6 5.68 6 5 C8.31 5 10.62 5 13 5 C13 7.64 13 10.28 13 13 C8.67943294 15.22574667 5.68101178 15.27663958 1 14 C-1.9611194 11.34258516 -2.88524807 9.81965661 -3.4375 5.875 C-2.96547258 2.7731055 -2.46468444 1.84851333 0 0 Z " fill="#A2A2A2" transform="translate(124,105)"/>
<path d="M0 0 C2.19909655 4.74541887 2.4200061 8.87592553 2 14 C0.48046875 15.73828125 0.48046875 15.73828125 -1 17 C-0.9278125 16.38511719 -0.855625 15.77023438 -0.78125 15.13671875 C-0.6884375 14.32847656 -0.595625 13.52023438 -0.5 12.6875 C-0.4071875 11.88699219 -0.314375 11.08648437 -0.21875 10.26171875 C0.04813463 7.88103445 0.04813463 7.88103445 0 5 C-0.19335938 5.62648437 -0.38671875 6.25296875 -0.5859375 6.8984375 C-0.84632812 7.71570313 -1.10671875 8.53296875 -1.375 9.375 C-1.63023438 10.18710938 -1.88546875 10.99921875 -2.1484375 11.8359375 C-3 14 -3 14 -5 16 C-8.125 15.625 -8.125 15.625 -11 15 C-11 14.67 -11 14.34 -11 14 C-9.02 13.67 -7.04 13.34 -5 13 C-5 10.36 -5 7.72 -5 5 C-6.98 5.33 -8.96 5.66 -11 6 C-10.67 5.34 -10.34 4.68 -10 4 C-8.66666667 3.66666667 -7.33333333 3.33333333 -6 3 C-5.67 2.34 -5.34 1.68 -5 1 C-7.97 1.66 -10.94 2.32 -14 3 C-12 0 -12 0 -9.94140625 -0.546875 C-8.76384766 -0.64742187 -8.76384766 -0.64742187 -7.5625 -0.75 C-6.78003906 -0.82734375 -5.99757813 -0.9046875 -5.19140625 -0.984375 C-3 -1 -3 -1 0 0 Z " fill="#484848" transform="translate(74,133)"/>
<path d="M0 0 C1.98 0 3.96 0 6 0 C6.66 0.66 7.32 1.32 8 2 C6.35 2 4.7 2 3 2 C3 3.98 3 5.96 3 8 C5.47266765 7.65555119 5.47266765 7.65555119 8 7 C8.33 6.34 8.66 5.68 9 5 C9.66 5.33 10.32 5.66 11 6 C10.42415568 8.38564077 9.77772405 10.66682784 9 13 C7.02 12.34 5.04 11.68 3 11 C3 12.98 3 14.96 3 17 C2.01 17 1.02 17 0 17 C0 11.39 0 5.78 0 0 Z " fill="#A6A6A6" transform="translate(128,134)"/>
<path d="M0 0 C1.65 0 3.3 0 5 0 C4 3 4 3 3.0390625 4.859375 C1.86591881 7.27622741 1.12163277 9.67072317 0.375 12.25 C-0.01558594 13.58804688 -0.01558594 13.58804688 -0.4140625 14.953125 C-0.60742188 15.62859375 -0.80078125 16.3040625 -1 17 C-2.65 17 -4.3 17 -6 17 C-6.33 14.36 -6.66 11.72 -7 9 C-6.34 8.67 -5.68 8.34 -5 8 C-4.67 9.32 -4.34 10.64 -4 12 C-2.68 8.04 -1.36 4.08 0 0 Z " fill="#9B9B9B" transform="translate(81,102)"/>
<path d="M0 0 C4.75 1.875 4.75 1.875 7 3 C6.125 6.875 6.125 6.875 5 8 C6.32 8.66 7.64 9.32 9 10 C7.12356239 11.87643761 4.50194299 11.17984987 2.0078125 11.23046875 C0 11 0 11 -3 9 C-2.67 7.68 -2.34 6.36 -2 5 C-0.68 4.67 0.64 4.34 2 4 C1.34 2.68 0.68 1.36 0 0 Z " fill="#494949" transform="translate(40,110)"/>
<path d="M0 0 C0.33 2.64 0.66 5.28 1 8 C1.99 7.67 2.98 7.34 4 7 C3.67 8.65 3.34 10.3 3 12 C1.35 12.33 -0.3 12.66 -2 13 C-2.99 11.02 -3.98 9.04 -5 7 C-5.33 7 -5.66 7 -6 7 C-6 5.02 -6 3.04 -6 1 C-1.125 0 -1.125 0 0 0 Z " fill="#7C7C7C" transform="translate(65,99)"/>
<path d="M0 0 C3.16737522 2.76516884 5.18923758 6.23628199 7.3125 9.8125 C7.69728516 10.41642578 8.08207031 11.02035156 8.47851562 11.64257812 C10.37928232 14.8589939 11.08256918 16.53728008 10.41796875 20.26171875 C9 23 9 23 6 26 C6 23.03 6 20.06 6 17 C6.66 17 7.32 17 8 17 C8 16.34 8 15.68 8 15 C6.68 15.33 5.36 15.66 4 16 C2.66666667 10.66666667 1.33333333 5.33333333 0 0 Z " fill="#DCC044" transform="translate(95,55)"/>
<path d="M0 0 C0.78375 0.04125 1.5675 0.0825 2.375 0.125 C2.375 0.785 2.375 1.445 2.375 2.125 C1.735625 2.393125 1.09625 2.66125 0.4375 2.9375 C-1.95631686 4.01167752 -1.95631686 4.01167752 -2.625 7.125 C-0.9234375 7.5890625 -0.9234375 7.5890625 0.8125 8.0625 C4.375 9.125 4.375 9.125 5.375 10.125 C5.5 13.125 5.5 13.125 5.375 16.125 C4.375 17.125 4.375 17.125 1.3125 17.1875 C0.343125 17.166875 -0.62625 17.14625 -1.625 17.125 C-0.9134375 16.4753125 -0.9134375 16.4753125 -0.1875 15.8125 C1.61186957 14.10190387 1.61186957 14.10190387 2.375 11.125 C1.59125 10.815625 0.8075 10.50625 0 10.1875 C-2.625 9.125 -2.625 9.125 -4.625 8.125 C-4.75 5.25 -4.75 5.25 -4.625 2.125 C-2.625 0.125 -2.625 0.125 0 0 Z " fill="#A3A3A3" transform="translate(44.625,101.875)"/>
<path d="M0 0 C2.66648371 3.33105349 4.6669681 6.87197848 6.6875 10.625 C7.62142578 12.34589844 7.62142578 12.34589844 8.57421875 14.1015625 C10 17 10 17 10 19 C7.69 19 5.38 19 3 19 C3.66 18.67 4.32 18.34 5 18 C5 17.01 5 16.02 5 15 C4.01 14.67 3.02 14.34 2 14 C2 13.34 2 12.68 2 12 C2.66 12 3.32 12 4 12 C3.505 11.21625 3.01 10.4325 2.5 9.625 C1 7 1 7 1 5 C0.34 5 -0.32 5 -1 5 C-1.33 3.68 -1.66 2.36 -2 1 C-1.34 0.67 -0.68 0.34 0 0 Z " fill="#58534B" transform="translate(66,66)"/>
<path d="M0 0 C0.99 0.33 1.98 0.66 3 1 C3.33 3.31 3.66 5.62 4 8 C-0.26616316 9.13764351 -3.56486311 10 -8 10 C-6.82744291 6.66272214 -5.81131596 4.22562513 -3 2 C-2.34 2 -1.68 2 -1 2 C-0.67 1.34 -0.34 0.68 0 0 Z " fill="#545A5C" transform="translate(106,78)"/>
<path d="M0 0 C2.875 0.6875 2.875 0.6875 3.875 1.6875 C3.91580783 3.68708364 3.91754356 5.68795254 3.875 7.6875 C2.885 7.3575 1.895 7.0275 0.875 6.6875 C0.545 6.6875 0.215 6.6875 -0.125 6.6875 C-0.455 7.0175 -0.785 7.3475 -1.125 7.6875 C-2.79117115 7.72813832 -4.45888095 7.730221 -6.125 7.6875 C-6.3125 4.8125 -6.3125 4.8125 -6.125 1.6875 C-3.125 -0.3125 -3.125 -0.3125 0 0 Z " fill="#585858" transform="translate(137.125,134.3125)"/>
<path d="M0 0 C1.36623674 2.73247348 1.128426 4.98198902 1 8 C0 9 0 9 -3.0625 9.0625 C-4.031875 9.041875 -5.00125 9.02125 -6 9 C-6 6.36 -6 3.72 -6 1 C-4 0 -4 0 0 0 Z " fill="#A2A2A2" transform="translate(69,138)"/>
<path d="M0 0 C0.185625 0.61875 0.37125 1.2375 0.5625 1.875 C2.71437233 5.05602866 5.37533763 5.19451947 9 6 C9 6.66 9 7.32 9 8 C9.5775 8.0825 10.155 8.165 10.75 8.25 C13.6159304 9.20531013 14.9990764 10.78469173 17 13 C13.62622499 13.60554936 11.59294072 13.38420138 8.703125 11.51171875 C6.42941646 9.7172723 4.21557693 7.86530477 2 6 C1.01 5.34 0.02 4.68 -1 4 C-0.67 2.68 -0.34 1.36 0 0 Z " fill="#2A3649" transform="translate(40,67)"/>
<path d="M0 0 C0.70125 0.01417969 1.4025 0.02835937 2.125 0.04296875 C3.176875 0.05263672 3.176875 0.05263672 4.25 0.0625 C6.125 0.23046875 6.125 0.23046875 8.125 1.23046875 C7.465 2.88046875 6.805 4.53046875 6.125 6.23046875 C4.475 5.90046875 2.825 5.57046875 1.125 5.23046875 C1.125 5.89046875 1.125 6.55046875 1.125 7.23046875 C2.445 7.89046875 3.765 8.55046875 5.125 9.23046875 C3.805 9.56046875 2.485 9.89046875 1.125 10.23046875 C1.125 9.57046875 1.125 8.91046875 1.125 8.23046875 C0.465 8.23046875 -0.195 8.23046875 -0.875 8.23046875 C-0.545 6.91046875 -0.215 5.59046875 0.125 4.23046875 C1.445 3.90046875 2.765 3.57046875 4.125 3.23046875 C4.125 2.57046875 4.125 1.91046875 4.125 1.23046875 C2.145 1.89046875 0.165 2.55046875 -1.875 3.23046875 C-2.205 5.21046875 -2.535 7.19046875 -2.875 9.23046875 C-3.535 8.57046875 -4.195 7.91046875 -4.875 7.23046875 C-4.51756259 3.65609462 -4.11108226 0.50532053 0 0 Z " fill="#474747" transform="translate(42.875,100.76953125)"/>
<path d="M0 0 C0.77085938 0.0721875 1.54171875 0.144375 2.3359375 0.21875 C3.33882812 0.3115625 4.34171875 0.404375 5.375 0.5 C6.87160156 0.63921875 6.87160156 0.63921875 8.3984375 0.78125 C10.89703736 1.02792947 10.89703736 1.02792947 13 1 C12.67 2.65 12.34 4.3 12 6 C4.65306122 6.48979592 4.65306122 6.48979592 1.5 4.125 C0 2 0 2 0 0 Z " fill="#777777" transform="translate(36,147)"/>
<path d="M0 0 C0.66 0 1.32 0 2 0 C3.21153846 7.26923077 3.21153846 7.26923077 2.3125 10.375 C0.67356019 12.40416357 -0.53011107 13.15318094 -3 14 C-5.75 14.125 -5.75 14.125 -8 14 C-8 13.01 -8 12.02 -8 11 C-7.05125 10.855625 -6.1025 10.71125 -5.125 10.5625 C-1.87141432 9.37038249 -1.87141432 9.37038249 -1.15625 6.86328125 C-0.66828424 4.57773573 -0.27688708 2.3201228 0 0 Z " fill="#A2A2A2" transform="translate(72,138)"/>
<path d="M0 0 C0.99 0.33 1.98 0.66 3 1 C3.6875 3.0625 3.6875 3.0625 4 5 C4.66 5 5.32 5 6 5 C6 5.66 6 6.32 6 7 C7.65 6.67 9.3 6.34 11 6 C11 7.32 11 8.64 11 10 C13.64 10.33 16.28 10.66 19 11 C19 11.33 19 11.66 19 12 C15.04 12 11.08 12 7 12 C7 11.34 7 10.68 7 10 C6.01 9.67 5.02 9.34 4 9 C2.83203125 6.93359375 2.83203125 6.93359375 1.8125 4.4375 C1.46832031 3.61121094 1.12414062 2.78492187 0.76953125 1.93359375 C0.51558594 1.29550781 0.26164062 0.65742187 0 0 Z " fill="#E8C743" transform="translate(75,82)"/>
<path d="M0 0 C0.66 0.33 1.32 0.66 2 1 C1.67 2.98 1.34 4.96 1 7 C0.01 7.33 -0.98 7.66 -2 8 C-1.649375 8.70125 -1.29875 9.4025 -0.9375 10.125 C0.1639193 13.50268586 -0.20483859 15.58080593 -1 19 C-1.66 18.67 -2.32 18.34 -3 18 C-2.979375 17.071875 -2.95875 16.14375 -2.9375 15.1875 C-2.84230396 11.97713989 -2.84230396 11.97713989 -4 9 C-6.01508358 8.26676204 -6.01508358 8.26676204 -8 8 C-8 7.34 -8 6.68 -8 6 C-6.35 6 -4.7 6 -3 6 C-2.01 4.02 -1.02 2.04 0 0 Z " fill="#818181" transform="translate(52,100)"/>
<path d="M0 0 C-0.33 0.99 -0.66 1.98 -1 3 C-2.2065625 3.4021875 -2.2065625 3.4021875 -3.4375 3.8125 C-6.33026976 4.80353159 -6.33026976 4.80353159 -7.3125 8.125 C-7.6528125 9.548125 -7.6528125 9.548125 -8 11 C-8.99 11 -9.98 11 -11 11 C-11.46707789 6.98313013 -11.32150834 5.43498188 -8.875 2.125 C-5.56501812 -0.32150834 -4.01686987 -0.46707789 0 0 Z " fill="#A0A0A0" transform="translate(69,134)"/>
<path d="M0 0 C1.65 0.33 3.3 0.66 5 1 C4.67 1.99 4.34 2.98 4 4 C3.34 4 2.68 4 2 4 C1.01 6.97 0.02 9.94 -1 13 C-2.32 13 -3.64 13 -5 13 C-5 11.68 -5 10.36 -5 9 C-4.01 9 -3.02 9 -2 9 C-1.34 6.03 -0.68 3.06 0 0 Z " fill="#A4A4A4" transform="translate(70,106)"/>
<path d="M0 0 C1.9451 2.91765 2.45276317 4.62537285 3 8 C3.99 8 4.98 8 6 8 C6 8.66 6 9.32 6 10 C6.66 10.33 7.32 10.66 8 11 C7.01 11 6.02 11 5 11 C5 12.32 5 13.64 5 15 C6.65 15.33 8.3 15.66 10 16 C10 16.33 10 16.66 10 17 C8.02 17 6.04 17 4 17 C3.32389577 15.10751181 2.65949561 13.2108398 2 11.3125 C1.62875 10.25675781 1.2575 9.20101562 0.875 8.11328125 C0.0608143 5.21637944 -0.17709796 2.98299377 0 0 Z " fill="#5B5B5B" transform="translate(60,104)"/>
<path d="M0 0 C1.4370809 -0.05422947 2.87475462 -0.09289723 4.3125 -0.125 C5.11300781 -0.14820312 5.91351563 -0.17140625 6.73828125 -0.1953125 C9 0 9 0 12 2 C11.6875 3.9375 11.6875 3.9375 11 6 C7.23375329 7.25541557 5.62811066 6.37061958 2 5 C2.99 4.01 3.98 3.02 5 2 C3.02 2 1.04 2 -1 2 C-0.67 1.34 -0.34 0.68 0 0 Z " fill="#545454" transform="translate(125,101)"/>
<path d="M0 0 C1.65 0 3.3 0 5 0 C3.68 0.33 2.36 0.66 1 1 C0.53590278 5.00022661 0.53590278 5.00022661 3 7.0625 C3.99 8.0215625 3.99 8.0215625 5 9 C5 9.99 5 10.98 5 12 C3.35 12 1.7 12 0 12 C0.33 10.68 0.66 9.36 1 8 C0.01 8 -0.98 8 -2 8 C-2.33 8.66 -2.66 9.32 -3 10 C-2.39009109 6.44219804 -1.4216319 3.3171411 0 0 Z " fill="#484848" transform="translate(100,101)"/>
<path d="M0 0 C4 1 4 1 5 2 C4.71269945 4.33944736 4.38063221 6.6739143 4 9 C2.68 9.33 1.36 9.66 0 10 C0 6.7 0 3.4 0 0 Z " fill="#9A9A9A" transform="translate(89,138)"/>
<path d="M0 0 C-2.25 2.0625 -2.25 2.0625 -5 4 C-7.3125 3.75 -7.3125 3.75 -9 3 C-9.27429625 8.39449293 -9.36055646 11.51925805 -6 16 C-9.875 14.25 -9.875 14.25 -11 12 C-11.46090535 4.85596708 -11.46090535 4.85596708 -9.6875 1.5625 C-6.45255971 -1.43281508 -4.00941216 -0.97526242 0 0 Z " fill="#606060" transform="translate(131,103)"/>
<path d="M0 0 C0.33 0.99 0.66 1.98 1 3 C4.51190809 4.22969878 4.51190809 4.22969878 8 5 C8 5.66 8 6.32 8 7 C6.06115111 6.71743908 4.12394039 6.4236207 2.1875 6.125 C1.10855469 5.96257812 0.02960938 5.80015625 -1.08203125 5.6328125 C-4 5 -4 5 -7 3 C-7 2.34 -7 1.68 -7 1 C-3.535 0.505 -3.535 0.505 0 0 Z " fill="#495D6C" transform="translate(70,81)"/>
<path d="M0 0 C0.33 0.99 0.66 1.98 1 3 C1.99 3.33 2.98 3.66 4 4 C-0.18586481 7.18923033 -2.70558305 8.50423019 -8 8 C-5.33333333 5.33333333 -2.66666667 2.66666667 0 0 Z " fill="#28353F" transform="translate(127,72)"/>
<path d="M0 0 C3.21043882 1.38188453 5.04936365 2.92421903 7.25 5.625 C8.03117188 6.57246094 8.03117188 6.57246094 8.828125 7.5390625 C9.40820312 8.26222656 9.40820312 8.26222656 10 9 C8.02 9.99 8.02 9.99 6 11 C2.35293732 8.56862488 2.17333353 7.10666735 1 3 C0.67 2.01 0.34 1.02 0 0 Z " fill="#2B2F39" transform="translate(131,19)"/>
<path d="M0 0 C0.66 0 1.32 0 2 0 C2 0.66 2 1.32 2 2 C3.98 2 5.96 2 8 2 C3.14488244 5.95602172 -0.71925967 7.29212746 -7 7 C-6.34 6.67 -5.68 6.34 -5 6 C-5 5.34 -5 4.68 -5 4 C-4.360625 3.71125 -3.72125 3.4225 -3.0625 3.125 C-0.84793921 2.17176549 -0.84793921 2.17176549 0 0 Z " fill="#3A4855" transform="translate(115,78)"/>
<path d="M0 0 C0.99 0 1.98 0 3 0 C3.94693195 3.7016431 4.30443767 5.39112465 2.5625 8.875 C2.046875 9.57625 1.53125 10.2775 1 11 C0.01 10.67 -0.98 10.34 -2 10 C-1.34 6.7 -0.68 3.4 0 0 Z " fill="#9D9D9D" transform="translate(95,139)"/>
<path d="M0 0 C2.97 0 5.94 0 9 0 C9 0.99 9 1.98 9 3 C6.69 3 4.38 3 2 3 C1.67 4.65 1.34 6.3 1 8 C0.67 8 0.34 8 0 8 C0 5.36 0 2.72 0 0 Z " fill="#A1A1A1" transform="translate(109,134)"/>
<path d="M0 0 C2.475 0.495 2.475 0.495 5 1 C5.33 1.99 5.66 2.98 6 4 C9.00007271 5.70855022 9.00007271 5.70855022 12 7 C12 7.33 12 7.66 12 8 C7.6822542 7.49202991 3.96697886 6.80317221 0 5 C0.99 4.34 1.98 3.68 3 3 C2.01 2.01 1.02 1.02 0 0 Z " fill="#3D4553" transform="translate(53,76)"/>
<path d="M0 0 C0 0.66 0 1.32 0 2 C-0.99 2.33 -1.98 2.66 -3 3 C-4.22520264 6.00847418 -4.22520264 6.00847418 -5 9 C-5.99 9 -6.98 9 -8 9 C-7.745504 7.51793505 -7.47088238 6.03931385 -7.1875 4.5625 C-7.03667969 3.73878906 -6.88585937 2.91507812 -6.73046875 2.06640625 C-6.48941406 1.38449219 -6.24835938 0.70257813 -6 0 C-3 -1 -3 -1 0 0 Z " fill="#272625" transform="translate(136,66)"/>
<path d="M0 0 C4.23169259 0.37615045 6.8083482 1.17661571 10 4 C9 5 9 5 7.15234375 5.09765625 C5.1015625 5.06510417 3.05078125 5.03255208 1 5 C0.34 3.68 -0.32 2.36 -1 1 C-0.67 0.67 -0.34 0.34 0 0 Z " fill="#707070" transform="translate(39,116)"/>
<path d="M0 0 C0.45375 0.66 0.9075 1.32 1.375 2 C1.91125 2.66 2.4475 3.32 3 4 C3.66 4 4.32 4 5 4 C5 5.65 5 7.3 5 9 C3.35 9 1.7 9 0 9 C-0.87890625 2.84765625 -0.87890625 2.84765625 -1 1 C-0.67 0.67 -0.34 0.34 0 0 Z " fill="#A3A3A3" transform="translate(75,110)"/>
<path d="M0 0 C4.875 1.75 4.875 1.75 6 4 C6.47317073 11.45243902 6.47317073 11.45243902 4.484375 13.75390625 C3.99453125 14.16511719 3.5046875 14.57632813 3 15 C3.0721875 14.38511719 3.144375 13.77023438 3.21875 13.13671875 C3.3115625 12.32847656 3.404375 11.52023438 3.5 10.6875 C3.5928125 9.88699219 3.685625 9.08648437 3.78125 8.26171875 C4.04813463 5.88103445 4.04813463 5.88103445 4 3 C3.01 3.99 2.02 4.98 1 6 C0.67 4.02 0.34 2.04 0 0 Z " fill="#5B5B5B" transform="translate(70,135)"/>
<path d="M0 0 C0.99 0.495 0.99 0.495 2 1 C2.625 3.0625 2.625 3.0625 3 5 C5.97 5.495 5.97 5.495 9 6 C9 6.66 9 7.32 9 8 C6.03 8 3.06 8 0 8 C0 5.36 0 2.72 0 0 Z " fill="#A9A9A9" transform="translate(109,143)"/>
<path d="M0 0 C5.875 0.875 5.875 0.875 7 2 C7.04080783 3.99958364 7.04254356 6.00045254 7 8 C2.60841671 6.5361389 2.12052567 4.02168662 0 0 Z " fill="#797979" transform="translate(134,134)"/>
<path d="M0 0 C2.52394612 3.12488567 4.39701907 6.31314387 6 10 C5.67 10.66 5.34 11.32 5 12 C1 7.25 1 7.25 1 5 C0.34 5 -0.32 5 -1 5 C-1.33 3.68 -1.66 2.36 -2 1 C-1.34 0.67 -0.68 0.34 0 0 Z " fill="#515041" transform="translate(66,66)"/>
<path d="M0 0 C0.66 0 1.32 0 2 0 C1.67 0.99 1.34 1.98 1 3 C0.86026048 6.84283684 0.82148381 10.3171369 2 14 C-1.10254768 11.4615519 -2.21838803 8.90805984 -3 5 C-1.75 2.125 -1.75 2.125 0 0 Z " fill="#D6BF4A" transform="translate(73,67)"/>
<path d="M0 0 C0.4125 0.45375 0.825 0.9075 1.25 1.375 C3.06408095 3.05950374 4.75285627 3.99265971 7 5 C7 6.32 7 7.64 7 9 C5.68 9 4.36 9 3 9 C2.67 8.01 2.34 7.02 2 6 C1.34 5.67 0.68 5.34 0 5 C0 3.35 0 1.7 0 0 Z " fill="#2C2523" transform="translate(33,54)"/>
<path d="M0 0 C0 0.66 0 1.32 0 2 C-1.65 2 -3.3 2 -5 2 C-5.66 3.32 -6.32 4.64 -7 6 C-7.99 5.01 -8.98 4.02 -10 3 C-9 1 -9 1 -7.25 0.375 C-4.79549443 -0.03408426 -2.4840589 -0.06900164 0 0 Z " fill="#272324" transform="translate(62,13)"/>
<path d="M0 0 C2.64 0 5.28 0 8 0 C8.33 0.66 8.66 1.32 9 2 C9.99 2.33 10.98 2.66 12 3 C12.33 2.34 12.66 1.68 13 1 C13.33 2.32 13.66 3.64 14 5 C12.02 5 10.04 5 8 5 C7.67 3.68 7.34 2.36 7 1 C4.69 1 2.38 1 0 1 C0 0.67 0 0.34 0 0 Z " fill="#363636" transform="translate(99,116)"/>
<path d="M0 0 C0.99 0.33 1.98 0.66 3 1 C2.75 3.375 2.75 3.375 2 6 C-0.0625 7.3125 -0.0625 7.3125 -2 8 C-1.125 2.25 -1.125 2.25 0 0 Z " fill="#2D3542" transform="translate(133,67)"/>
<path d="M0 0 C0.99 0.33 1.98 0.66 3 1 C3.04254356 2.99954746 3.04080783 5.00041636 3 7 C2 8 2 8 -0.5625 8.0625 C-1.366875 8.041875 -2.17125 8.02125 -3 8 C-2.67 7.01 -2.34 6.02 -2 5 C-0.02 5.495 -0.02 5.495 2 6 C1.01 5.01 0.02 4.02 -1 3 C-0.67 2.01 -0.34 1.02 0 0 Z " fill="#A9A9A9" transform="translate(67,139)"/>
<path d="M0 0 C0.66 0.33 1.32 0.66 2 1 C1.67 1.66 1.34 2.32 1 3 C0.34 3 -0.32 3 -1 3 C-1 3.66 -1 4.32 -1 5 C0.32 5 1.64 5 3 5 C3.33 7.31 3.66 9.62 4 12 C3.34 11.34 2.68 10.68 2 10 C2 8.68 2 7.36 2 6 C0.68 6 -0.64 6 -2 6 C-2 5.01 -2 4.02 -2 3 C-2.66 2.67 -3.32 2.34 -4 2 C-2.125 0.9375 -2.125 0.9375 0 0 Z " fill="#808180" transform="translate(103,95)"/>
<path d="M0 0 C-0.60183749 2.02045442 -1.27306096 4.02111039 -2 6 C-2.99 6.495 -2.99 6.495 -4 7 C-4.66 5.02 -5.32 3.04 -6 1 C-4 0 -4 0 0 0 Z " fill="#120B02" transform="translate(87,42)"/>
<path d="M0 0 C0.66 0.66 1.32 1.32 2 2 C3.31747324 2.69748583 4.64914193 3.36959957 6 4 C5.360625 4.226875 4.72125 4.45375 4.0625 4.6875 C1.72806339 5.85250896 1.72806339 5.85250896 1.25 8.625 C1.1675 9.40875 1.085 10.1925 1 11 C0.67 11 0.34 11 0 11 C0 7.37 0 3.74 0 0 Z " fill="#9D9D9D" transform="translate(128,139)"/>
<path d="M0 0 C0.66 0.33 1.32 0.66 2 1 C-0.475 5.455 -0.475 5.455 -3 10 C-3.33 10 -3.66 10 -4 10 C-4 8.35 -4 6.7 -4 5 C-3.34 5 -2.68 5 -2 5 C-2 3.68 -2 2.36 -2 1 C-1.34 0.67 -0.68 0.34 0 0 Z " fill="#D2C25A" transform="translate(99,82)"/>
<path d="M0 0 C0.33 0.66 0.66 1.32 1 2 C-0.64379791 6.67184669 -2.18479582 9.71103088 -6 13 C-4.58707905 8.1725201 -2.57025846 4.2837641 0 0 Z " fill="#555138" transform="translate(109,67)"/>
<path d="M0 0 C0.33 0.99 0.66 1.98 1 3 C-3.43076923 5.09230769 -3.43076923 5.09230769 -6.3125 4.625 C-6.869375 4.41875 -7.42625 4.2125 -8 4 C-7.01 3.34 -6.02 2.68 -5 2 C-5 1.67 -5 1.34 -5 1 C-3.35 0.67 -1.7 0.34 0 0 Z " fill="#8BA1BD" transform="translate(149,161)"/>
<path d="M0 0 C0.66 0.33 1.32 0.66 2 1 C1.67 3.31 1.34 5.62 1 8 C0.67 7.34 0.34 6.68 0 6 C-0.66 6 -1.32 6 -2 6 C-2.33 5.01 -2.66 4.02 -3 3 C-2.01 2.01 -1.02 1.02 0 0 Z " fill="#9F9F9F" transform="translate(101,134)"/>
<path d="M0 0 C1.32 0 2.64 0 4 0 C4.33 1.32 4.66 2.64 5 4 C3.35 4.33 1.7 4.66 0 5 C-0.33 4.01 -0.66 3.02 -1 2 C-0.67 1.34 -0.34 0.68 0 0 Z " fill="#A1A1A1" transform="translate(101,102)"/>
<path d="M0 0 C0.99 0.33 1.98 0.66 3 1 C3.6875 3.0625 3.6875 3.0625 4 5 C4.66 5 5.32 5 6 5 C6.33 6.65 6.66 8.3 7 10 C4 9 4 9 2.83203125 6.93359375 C2.49558594 6.10988281 2.15914063 5.28617187 1.8125 4.4375 C1.46832031 3.61121094 1.12414062 2.78492187 0.76953125 1.93359375 C0.51558594 1.29550781 0.26164062 0.65742187 0 0 Z " fill="#D1C05F" transform="translate(75,82)"/>
<path d="M0 0 C1.5 1.3125 1.5 1.3125 3 3 C3 3.99 3 4.98 3 6 C1.35 6 -0.3 6 -2 6 C-1.34 4.02 -0.68 2.04 0 0 Z " fill="#353535" transform="translate(102,107)"/>
<path d="M0 0 C2.97 0.495 2.97 0.495 6 1 C6 1.99 6 2.98 6 4 C4.02 4.33 2.04 4.66 0 5 C0 3.35 0 1.7 0 0 Z " fill="#252522" transform="translate(63,10)"/>
<path d="M0 0 C0.33 0 0.66 0 1 0 C1.36625971 4.51720311 1.36625971 4.51720311 -0.375 6.8125 C-2 8 -2 8 -4 8 C-2.87548273 5.0280615 -1.77706209 2.66559313 0 0 Z " fill="#2C3F51" transform="translate(36,27)"/>
<path d="M0 0 C3.36720387 1.39332574 4.9859524 2.9789286 7 6 C4 6 4 6 1.8125 4.125 C0 2 0 2 0 0 Z " fill="#2E4362" transform="translate(131,19)"/>
<path d="M0 0 C0.33 0.99 0.66 1.98 1 3 C1.99 3 2.98 3 4 3 C4.33 2.34 4.66 1.68 5 1 C4.67 2.32 4.34 3.64 4 5 C2.35 5 0.7 5 -1 5 C-0.67 3.35 -0.34 1.7 0 0 Z " fill="#404040" transform="translate(94,116)"/>
<path d="M0 0 C0.99 0 1.98 0 3 0 C1.60667426 3.36720387 0.0210714 4.9859524 -3 7 C-2.67 5.35 -2.34 3.7 -2 2 C-1.34 2 -0.68 2 0 2 C0 1.34 0 0.68 0 0 Z " fill="#777777" transform="translate(98,109)"/>
<path d="M0 0 C0.78375 0.04125 1.5675 0.0825 2.375 0.125 C0.32266315 2.3727975 -0.63167261 3.1272242 -3.625 4.125 C-4.285 4.785 -4.945 5.445 -5.625 6.125 C-4.86443086 2.32215429 -4.27658992 0.20364714 0 0 Z " fill="#8AA4BA" transform="translate(29.625,93.875)"/>
<path d="M0 0 C0.66 0 1.32 0 2 0 C2.33 2.31 2.66 4.62 3 7 C2.34 6.67 1.68 6.34 1 6 C1 5.34 1 4.68 1 4 C0.34 4 -0.32 4 -1 4 C-0.67 2.68 -0.34 1.36 0 0 Z " fill="#33465E" transform="translate(34,60)"/>
<path d="M0 0 C3.0916909 2.52956528 3.90931332 5.22454612 5 9 C3.0625 8.4375 3.0625 8.4375 1 7 C0.25 3.375 0.25 3.375 0 0 Z " fill="#D6BA44" transform="translate(90,46)"/>
</svg>